# xmcd
#
# Track frame offsets:
#	150
#	5871
#	26919
#	45470
#	64586
#	91021
#	112496
#	133331
#	158369
#	178980
#	196182
#	212050
#	228428
#	248761
#	265526
#	288219
#
# Disc length: 4006 seconds
#
# Revision: 1
# Processed by: cddbd v1.5.1PL2 Copyright (c) Steve Scherf et al.
# Submitted via: audiograbber 1.83.01
#
DISCID=df0fa410
DTITLE=Optical Illusion - the offfering
DYEAR=2005
DGENRE=Hip-Hop
TTITLE0=Last 3 letters of Skill
TTITLE1=Pure Science
TTITLE2=Get it Up
TTITLE3=Raw Core
TTITLE4=Heat-Wave
TTITLE5=Same O Song
TTITLE6=Capital O
TTITLE7=Ghetto Beautifulness
TTITLE8=Definitive Moments
TTITLE9=Orgasmic
TTITLE10=I Knew a Girl Once
TTITLE11=Where you belong
TTITLE12=Freedom
TTITLE13=Let my people go
TTITLE14=Sending the word
TTITLE15=The People
EXTD=Logik, Geno aka Tumelo, BattleKat and Golden Shovel have come a long way a
EXTD=nd I think the dudes have grown on this joint! Production of course is A G
EXTD=rade: Nyambz, Stethescope and of course BK...3 of the dopest cats on beats
EXTD=in hip hop today! Pretty dope featured artists too.
EXTT0=
EXTT1=
EXTT2=
EXTT3=
EXTT4=
EXTT5=
EXTT6=
EXTT7=
EXTT8=
EXTT9=
EXTT10=
EXTT11=
EXTT12=
EXTT13=
EXTT14=
EXTT15=
PLAYORDER=
